<?xml version="1.0" standalone="no"?><!DOCTYPE svg PUBLIC "-//W3C//DTD SVG 1.1//EN" "http://www.w3.org/Graphics/SVG/1.1/DTD/svg11.dtd"><svg height="1024" node-id="1" sillyvg="true" template-height="1024" template-width="1024" version="1.1" viewBox="0 0 1024 1024" width="1024" xmlns="http://www.w3.org/2000/svg" xmlns:xlink="http://www.w3.org/1999/xlink"><defs node-id="55"><clipPath id="master_svg0_4_148" node-id="3"><path d="M 0.00 0.00 L 1024.00 0.00 L 1024.00 1024.00 L 0.00 1024.00 Z" fill="#000000" fill-rule="nonzero" node-id="58" stroke="none" target-height="1024" target-width="1024" target-x="0" target-y="0"></path></clipPath><mask height="14390.41" id="master_svg1_4_149" maskUnits="userSpaceOnUse" node-id="5" width="14390.4" x="-6555.185" y="-6280.685"><path d="M 158.28 858.95 C 146.24 988.75 186.26 1118.02 269.52 1218.32 C 352.79 1318.62 472.49 1381.73 602.30 1393.77 C 732.10 1405.82 861.37 1365.80 961.67 1282.53 C 1061.97 1199.27 1125.08 1079.56 1137.12 949.76 C 1149.17 819.96 1109.15 690.69 1025.88 590.39 C 942.62 490.09 822.91 426.98 693.11 414.94 C 563.31 402.89 434.04 442.91 333.74 526.17 C 233.44 609.44 170.33 729.14 158.28 858.95 Z" fill="#ffffff" fill-rule="nonzero" node-id="64" stroke="none" target-height="1002.9241" target-width="1002.92395" target-x="146.24133" target-y="402.892"></path></mask><mask height="221.40001" id="master_svg2_4_703" maskUnits="userSpaceOnUse" node-id="8" width="147.91939" x="128.67339" y="111.55"><path d="M 141.00 178.00 C 205.00 269.00 244.67 314.50 260.00 314.50 C 260.88 314.50 261.63 314.30 262.24 313.89 C 272.19 307.20 245.45 245.90 182.00 130.00 L 141.00 178.00 Z" fill="#ffffff" fill-rule="nonzero" node-id="71" stroke="none" target-height="184.5" target-width="131.19455" target-x="141" target-y="130"></path></mask></defs><g clip-path="url(#master_svg0_4_148)" id="sillyvg_g_2" node-id="76"><path d="M 1005.57 512.00 C 1005.57 642.36 953.78 767.38 861.61 859.56 C 769.43 951.74 644.41 1003.52 514.05 1003.52 C 383.69 1003.52 258.67 951.74 166.49 859.56 C 74.31 767.38 22.53 642.36 22.53 512.00 C 22.53 381.64 74.31 256.62 166.49 164.44 C 258.67 72.26 383.69 20.48 514.05 20.48 C 644.41 20.48 769.43 72.26 861.61 164.44 C 953.78 256.62 1005.57 381.64 1005.57 512.00 Z" fill="#eddbdb" fill-rule="nonzero" group-id="1" node-id="80" stroke="none" target-height="983.04004" target-width="983.04004" target-x="22.528015" target-y="20.47998"></path><path d="M 462.50 925.50 C 444.83 970.17 439.67 1003.33 447.00 1025.00 C 573.00 1026.33 649.83 1020.50 677.50 1007.50 C 705.17 994.50 758.33 969.50 837.00 932.50 C 837.00 930.07 837.54 924.70 838.28 917.19 C 840.93 890.66 846.23 837.42 840.00 793.00 C 832.00 736.00 801.00 687.00 801.00 664.00 C 801.00 661.96 801.09 658.92 801.21 655.02 C 802.45 614.90 806.49 484.32 739.50 431.00 C 666.00 372.50 494.00 412.50 482.00 482.00 C 475.03 522.39 514.18 593.47 544.22 647.98 C 561.95 680.17 576.50 706.58 576.50 717.50 C 576.50 746.91 489.00 858.50 462.50 925.50 Z" fill="#ffd23e" fill-rule="nonzero" group-id="2" node-id="85" stroke="none" target-height="653.83325" target-width="406.56827" target-x="439.66666" target-y="372.5"></path><path d="M 570.50 80.00 C 555.00 80.00 536.50 204.50 555.00 297.50 C 564.14 343.47 593.81 381.30 644.00 411.00 L 722.00 430.00 C 717.00 389.47 708.00 351.97 695.00 317.50 C 675.50 265.79 612.60 188.59 598.00 160.00 C 586.00 136.50 586.00 80.00 570.50 80.00 Z" fill="#ffd23e" fill-rule="nonzero" group-id="3" node-id="90" stroke="none" target-height="350" target-width="185.50006" target-x="536.5" target-y="80"></path><path d="M 740.50 447.50 L 751.50 460.00 C 823.50 463.33 878.83 457.00 917.50 441.00 C 956.17 425.00 990.00 403.17 1019.00 375.50 L 977.00 271.50 C 917.33 293.50 876.50 315.83 854.50 338.50 C 832.50 361.17 794.50 397.50 740.50 447.50 Z" fill="#ffd23e" fill-rule="nonzero" group-id="4" node-id="95" stroke="none" target-height="191.83334" target-width="278.5" target-x="740.5" target-y="271.5"></path><path d="M 787.50 438.50 C 854.50 432.50 904.22 419.19 954.00 386.00 C 968.00 376.67 981.83 366.33 995.50 355.00 L 973.00 304.00 C 939.00 322.67 911.00 339.67 889.00 355.00 C 856.00 378.00 804.50 428.00 787.50 438.50 Z" fill="#000000" fill-rule="nonzero" group-id="5" node-id="100" stroke="none" target-height="134.49997" target-width="208.00006" target-x="787.5" target-y="304"></path><path d="M 518.45 475.33 C 509.73 472.96 498.32 473.92 497.61 478.87 C 496.90 483.83 502.37 495.58 514.00 498.22 C 528.49 501.61 536.41 490.35 536.13 485.80 C 535.85 481.24 527.16 477.69 518.45 475.33 Z" fill="#000000" fill-rule="nonzero" group-id="6" node-id="105" stroke="none" target-height="28.65033" target-width="39.515076" target-x="496.89673" target-y="472.9599"></path><path d="M 517.50 526.50 C 510.06 532.66 525.80 557.39 547.54 591.56 C 568.17 623.97 594.21 664.88 611.00 706.50 C 634.00 763.50 654.33 856.33 672.00 985.00 L 760.00 961.50 C 758.00 873.83 740.17 791.83 706.50 715.50 C 656.00 601.00 532.00 514.50 517.50 526.50 Z" fill="#ffffff" fill-rule="nonzero" group-id="7" node-id="110" stroke="none" target-height="470.49988" target-width="249.9418" target-x="510.0582" target-y="514.5"></path><path d="M 803.50 913.00 L 816.50 908.50 L 816.50 889.81 C 816.50 886.35 818.67 877.08 823.00 862.00 L 808.50 883.50 L 803.50 913.00 Z" fill="#000000" fill-rule="nonzero" group-id="8" node-id="115" stroke="none" target-height="51" target-width="19.499939" target-x="803.50006" target-y="862"></path><path d="M 576.00 774.50 C 572.00 806.17 574.17 835.17 582.50 861.50 C 595.00 901.00 640.75 952.79 655.50 970.00 C 659.50 974.67 660.33 983.50 658.00 996.50 L 677.50 986.50 L 645.50 908.00 L 576.00 774.50 Z" fill="#000000" fill-rule="nonzero" group-id="9" node-id="120" stroke="none" target-height="222" target-width="105.5" target-x="572" target-y="774.5"></path><path d="M 581.50 749.50 C 572.50 773.50 572.50 804.83 581.50 843.50 C 595.00 901.50 659.00 955.50 663.50 972.50 C 666.50 983.83 669.33 999.00 672.00 1018.00 C 702.00 993.67 717.00 978.50 717.00 972.50 C 717.00 970.01 717.31 967.71 717.66 965.02 C 718.60 957.99 719.89 948.29 717.00 925.50 C 713.00 894.00 675.73 830.00 654.87 801.50 C 634.00 773.00 620.50 749.50 604.00 749.50 L 581.50 749.50 Z" fill="#ffd23e" fill-rule="nonzero" group-id="10" node-id="125" stroke="none" target-height="268.5" target-width="147.39343" target-x="572.5001" target-y="749.5"></path><path d="M 726.50 971.50 L 792.00 940.50 C 805.37 918.83 812.06 904.17 812.06 896.50 C 812.06 888.83 816.70 875.50 826.00 856.50 L 757.00 856.50 C 743.33 877.83 735.00 896.83 732.00 913.50 C 729.00 930.17 727.17 949.50 726.50 971.50 Z" fill="#ffd23e" fill-rule="nonzero" group-id="11" node-id="130" stroke="none" target-height="115" target-width="99.5" target-x="726.5" target-y="856.5"></path><path d="M 661.97 480.17 C 652.74 496.82 657.17 516.91 671.86 525.06 C 686.55 533.20 705.94 526.30 715.17 509.66 C 719.60 501.66 721.05 492.44 719.19 484.02 C 717.34 475.60 712.33 468.68 705.28 464.76 C 698.22 460.85 689.70 460.28 681.57 463.17 C 673.45 466.06 666.40 472.17 661.97 480.17 Z" fill="#ffffff" fill-rule="nonzero" group-id="12,14,20" node-id="139" stroke="none" target-height="72.92038" target-width="68.30798" target-x="652.739" target-y="460.28006"></path><path d="M 659.61 487.25 C 655.27 495.08 657.30 504.52 664.16 508.32 C 671.01 512.12 680.09 508.84 684.44 501.01 C 688.78 493.17 686.74 483.74 679.89 479.94 C 673.03 476.14 663.95 479.41 659.61 487.25 Z" fill="#000000" fill-rule="nonzero" group-id="12,14,21" node-id="144" stroke="none" target-height="35.973206" target-width="33.51233" target-x="655.26685" target-y="476.1421"></path><path d="M 582.71 445.15 C 573.48 461.80 577.91 481.89 592.60 490.04 C 607.29 498.18 626.68 491.28 635.91 474.64 C 640.34 466.64 641.79 457.42 639.93 449.00 C 638.08 440.58 633.08 433.65 626.02 429.74 C 618.97 425.83 610.44 425.26 602.32 428.15 C 594.20 431.04 587.14 437.15 582.71 445.15 Z" fill="#ffffff" fill-rule="nonzero" group-id="12,15,22" node-id="152" stroke="none" target-height="72.92032" target-width="68.30792" target-x="573.4815" target-y="425.25974"></path><path d="M 580.72 449.46 C 576.38 457.30 578.42 466.73 585.27 470.53 C 592.13 474.33 601.20 471.06 605.55 463.22 C 609.89 455.39 607.85 445.96 601.00 442.16 C 594.14 438.36 585.06 441.63 580.72 449.46 Z" fill="#000000" fill-rule="nonzero" group-id="12,15,23" node-id="157" stroke="none" target-height="35.973145" target-width="33.512207" target-x="576.37823" target-y="438.3564"></path><path d="M 141.00 178.00 C 205.00 269.00 244.67 314.50 260.00 314.50 C 260.88 314.50 261.63 314.30 262.24 313.89 C 272.19 307.20 245.45 245.90 182.00 130.00 L 141.00 178.00 Z" fill="#ff6b0f" fill-rule="nonzero" group-id="13,16" node-id="166" stroke="none" target-height="184.5" target-width="131.19455" target-x="141" target-y="130"></path><path d="M 174.91 198.01 C 174.61 198.39 175.10 198.88 175.47 198.57 L 208.00 172.00 L 201.50 165.00 L 174.91 198.01 Z" fill="#000000" fill-rule="nonzero" group-id="13,17" node-id="171" stroke="none" target-height="33.876236" target-width="33.39409" target-x="174.60591" target-y="165"></path><path d="M 193.60 219.63 C 193.13 220.00 193.60 220.74 194.13 220.47 L 229.42 203.16 L 224.75 194.83 L 193.60 219.63 Z" fill="#000000" fill-rule="nonzero" group-id="13,18" node-id="176" stroke="none" target-height="25.91043" target-width="36.283966" target-x="193.133" target-y="194.82541"></path><path d="M 209.49 247.48 C 208.89 247.88 209.37 248.79 210.04 248.53 L 245.49 234.70 L 240.82 226.37 L 209.49 247.48 Z" fill="#000000" fill-rule="nonzero" group-id="13,19" node-id="181" stroke="none" target-height="22.427368" target-width="36.591736" target-x="208.89398" target-y="226.3659"></path></g></svg>