<?xml version="1.0" standalone="no"?><!DOCTYPE svg PUBLIC "-//W3C//DTD SVG 1.1//EN" "http://www.w3.org/Graphics/SVG/1.1/DTD/svg11.dtd"><svg height="1024" node-id="1" sillyvg="true" template-height="1024" template-width="1024" version="1.1" viewBox="0 0 1024 1024" width="1024" xmlns="http://www.w3.org/2000/svg" xmlns:xlink="http://www.w3.org/1999/xlink"><defs node-id="44"><clipPath id="master_svg0_2_61" node-id="3"><path d="M 0.00 0.00 L 1024.00 0.00 L 1024.00 1024.00 L 0.00 1024.00 Z" fill="#000000" fill-rule="nonzero" node-id="47" stroke="none" target-height="1024" target-width="1024" target-x="0" target-y="0"></path></clipPath><mask height="10844.541" id="master_svg1_2_62" maskUnits="userSpaceOnUse" node-id="5" width="10844.391" x="-5146.207" y="-5408.039"><path d="M -145.83 -244.22 C -65.58 -346.95 52.20 -413.58 181.59 -429.47 C 310.98 -445.36 441.37 -409.19 544.10 -328.93 C 646.82 -248.68 713.46 -130.90 729.35 -1.51 C 745.23 127.88 709.07 258.27 628.81 361.00 C 548.56 463.72 430.78 530.36 301.39 546.25 C 172.00 562.13 41.60 525.97 -61.12 445.71 C -163.85 365.46 -230.48 247.68 -246.37 118.29 C -262.26 -11.10 -226.09 -141.50 -145.83 -244.22 Z" fill="#ffffff" fill-rule="nonzero" node-id="53" stroke="none" target-height="1007.48773" target-width="1007.4877" target-x="-262.25513" target-y="-445.35504"></path></mask><mask height="83.19269" id="master_svg2_2_85" maskUnits="userSpaceOnUse" node-id="8" width="115.5072" x="383.3629" y="339.2173"><path d="M 388.51 387.71 C 376.77 393.56 344.26 409.75 354.08 414.66 C 355.90 415.57 358.51 417.01 361.63 418.72 C 376.02 426.63 401.32 440.55 411.42 437.19 C 423.71 433.09 468.76 393.15 492.32 393.15 C 515.87 393.15 555.51 414.66 563.34 414.66 C 571.16 414.66 547.61 332.74 524.06 320.45 C 508.36 312.26 468.08 320.79 403.23 346.05 C 396.55 348.78 393.22 352.56 393.22 357.38 C 393.22 359.22 393.67 361.71 394.17 364.50 C 395.64 372.63 397.55 383.19 389.92 387.01 C 389.49 387.22 389.02 387.46 388.51 387.71 Z" fill="#ffffff" fill-rule="nonzero" node-id="60" stroke="none" target-height="128.29333" target-width="226.9013" target-x="344.26324" target-y="312.25732"></path></mask></defs><g clip-path="url(#master_svg0_2_61)" id="sillyvg_g_2" node-id="65"><path d="M 1005.57 512.00 C 1005.57 642.36 953.78 767.38 861.61 859.56 C 769.43 951.74 644.41 1003.52 514.05 1003.52 C 383.69 1003.52 258.67 951.74 166.49 859.56 C 74.31 767.38 22.53 642.36 22.53 512.00 C 22.53 381.64 74.31 256.62 166.49 164.44 C 258.67 72.26 383.69 20.48 514.05 20.48 C 644.41 20.48 769.43 72.26 861.61 164.44 C 953.78 256.62 1005.57 381.64 1005.57 512.00 Z" fill="#d9ebe9" fill-rule="nonzero" group-id="1" node-id="69" stroke="none" target-height="983.04004" target-width="983.04004" target-x="22.528015" target-y="20.47998"></path><path d="M 120.83 376.83 C 133.80 387.07 146.77 392.19 159.74 392.19 C 148.14 396.97 139.61 406.87 134.14 421.89 C 147.80 419.16 155.99 419.92 158.72 424.18 C 159.40 425.25 159.74 426.53 159.74 428.03 C 159.74 430.27 162.00 437.47 165.53 448.71 C 179.77 494.07 214.65 605.18 204.80 720.90 C 192.51 865.28 157.70 953.40 145.41 991.23 C 133.12 1029.06 458.75 1121.28 499.71 1092.61 C 540.67 1063.94 616.45 963.58 665.60 849.92 C 714.75 736.26 735.23 605.18 650.24 552.96 C 565.25 500.74 509.95 476.16 493.57 440.32 C 477.18 404.48 468.99 352.26 444.42 324.61 C 442.70 322.68 440.94 320.64 439.11 318.54 C 414.82 290.53 379.46 249.76 291.84 262.14 C 197.63 275.46 182.27 351.23 159.74 360.45 C 144.73 366.59 131.75 372.05 120.83 376.83 Z" fill="#e03d00" fill-rule="nonzero" group-id="2" node-id="74" stroke="none" target-height="871.51654" target-width="614.4" target-x="120.83203" target-y="249.76324"></path><path d="M 318.14 350.79 C 326.35 365.59 322.41 383.45 309.35 390.69 C 296.29 397.93 279.06 391.80 270.85 377.00 C 262.65 362.20 266.59 344.34 279.64 337.10 C 292.70 329.86 309.94 335.99 318.14 350.79 Z" fill="#ffffff" fill-rule="nonzero" group-id="3,9,13" node-id="83" stroke="none" target-height="68.07004" target-width="63.69516" target-x="262.65024" target-y="329.8611"></path><path d="M 320.24 357.08 C 322.09 360.43 322.71 364.28 321.95 367.79 C 321.19 371.30 319.12 374.19 316.19 375.81 C 313.27 377.43 309.72 377.66 306.34 376.44 C 302.96 375.22 300.02 372.66 298.17 369.32 C 296.32 365.97 295.70 362.12 296.46 358.61 C 297.22 355.10 299.29 352.21 302.21 350.59 C 305.14 348.97 308.68 348.74 312.06 349.96 C 315.44 351.18 318.38 353.74 320.24 357.08 Z" fill="#000000" fill-rule="nonzero" group-id="3,9,14" node-id="88" stroke="none" target-height="28.918945" target-width="27.0065" target-x="295.7009" target-y="348.74115"></path><path d="M 386.55 315.56 C 394.75 330.36 390.81 348.23 377.75 355.47 C 364.70 362.71 347.46 356.58 339.26 341.78 C 331.05 326.98 334.99 309.11 348.05 301.87 C 361.11 294.64 378.34 300.76 386.55 315.56 Z" fill="#ffffff" fill-rule="nonzero" group-id="3,10,15" node-id="96" stroke="none" target-height="68.07007" target-width="63.69519" target-x="331.05347" target-y="294.63513"></path><path d="M 388.31 319.40 C 390.17 322.74 390.78 326.60 390.02 330.11 C 389.27 333.62 387.20 336.50 384.27 338.13 C 381.34 339.75 377.80 339.98 374.42 338.76 C 371.04 337.54 368.10 334.98 366.25 331.63 C 364.39 328.29 363.78 324.44 364.53 320.92 C 365.29 317.41 367.36 314.53 370.29 312.91 C 373.22 311.28 376.76 311.06 380.14 312.28 C 383.52 313.49 386.46 316.06 388.31 319.40 Z" fill="#000000" fill-rule="nonzero" group-id="3,10,16" node-id="101" stroke="none" target-height="28.918945" target-width="27.00644" target-x="363.77625" target-y="311.05725"></path><path d="M 149.50 1104.90 C 189.10 1126.06 246.78 1115.82 322.56 1074.18 C 436.22 1011.71 559.10 798.72 564.22 719.87 C 569.34 641.02 534.53 602.79 474.11 594.60 C 413.70 586.41 329.73 602.11 287.74 655.36 C 245.76 708.61 229.38 845.82 216.06 882.69 C 198.83 930.41 182.45 963.52 166.91 982.02 C 176.13 1011.37 170.33 1052.33 149.50 1104.90 Z" fill="#000000" fill-rule="nonzero" group-id="4" node-id="108" stroke="none" target-height="539.65094" target-width="419.84003" target-x="149.50403" target-y="586.40826"></path><path d="M 123.90 1028.10 C 185.34 1075.20 253.95 1077.93 329.73 1036.29 C 443.39 973.82 562.18 770.11 562.18 697.34 C 562.18 624.58 533.50 566.27 473.09 558.08 C 412.67 549.89 347.14 556.03 305.15 609.28 C 263.17 662.53 244.74 770.05 228.35 861.18 C 217.43 921.94 182.61 977.58 123.90 1028.10 Z" fill="#e03d00" fill-rule="nonzero" group-id="5" node-id="113" stroke="none" target-height="528.04285" target-width="438.27203" target-x="123.90399" target-y="549.88745"></path><path d="M 388.51 387.71 C 376.77 393.56 344.26 409.75 354.08 414.66 C 355.91 415.58 358.25 416.99 361.02 418.67 C 373.68 426.36 395.47 439.58 420.86 436.22 C 451.81 432.13 468.76 393.15 492.32 393.15 C 515.87 393.15 555.51 414.66 563.34 414.66 C 571.16 414.66 547.61 332.74 524.06 320.45 C 508.36 312.26 468.08 320.79 403.23 346.05 C 397.24 348.14 394.24 352.26 394.24 358.40 C 394.24 360.79 394.64 363.51 395.05 366.33 C 396.22 374.39 397.50 383.22 389.92 387.01 C 389.49 387.22 389.02 387.46 388.51 387.71 Z" fill="#ffdd00" fill-rule="nonzero" group-id="6,11" node-id="120" stroke="none" target-height="127.32745" target-width="226.9013" target-x="344.26324" target-y="312.25732"></path><path d="M 424.96 359.42 C 422.56 363.26 416.77 365.57 414.72 364.54 C 412.67 363.52 414.28 356.93 416.68 353.10 C 419.07 349.26 423.35 347.61 426.23 349.41 C 429.11 351.20 427.36 355.59 424.96 359.42 Z" fill="#000000" fill-rule="nonzero" group-id="6,12,17" node-id="127" stroke="none" target-height="17.959106" target-width="16.434265" target-x="412.67236" target-y="347.60773"></path><path d="M 392.99 413.63 C 408.01 415.68 418.93 416.02 425.76 414.66 C 432.58 413.29 453.75 406.12 489.24 393.15 C 468.08 397.93 451.36 402.71 439.07 407.49 C 422.56 413.91 406.87 413.76 396.42 413.66 C 395.20 413.65 394.06 413.63 392.99 413.63 Z" fill="#000000" fill-rule="nonzero" group-id="6,12,18" node-id="132" stroke="none" target-height="22.869324" target-width="96.25604" target-x="392.9885" target-y="393.15408"></path><path d="M 465.92 460.80 C 447.49 467.97 428.03 516.10 443.39 582.66 C 453.28 625.52 491.82 656.04 521.29 649.70 C 522.38 649.46 523.03 648.35 522.76 647.26 C 518.44 630.38 516.55 616.70 518.49 606.92 C 518.76 605.55 520.33 604.97 521.50 605.74 C 534.82 614.47 553.99 622.33 579.00 629.32 C 579.95 629.58 580.93 629.13 581.35 628.25 C 587.90 614.70 590.66 602.82 589.61 592.61 C 589.42 590.80 591.43 589.35 593.01 590.23 C 611.24 600.46 626.89 603.47 650.84 596.40 C 651.70 596.15 652.30 595.37 652.24 594.47 C 651.28 580.49 636.96 564.64 609.28 547.84 C 580.61 530.43 543.74 516.10 519.17 492.54 C 515.07 488.62 511.37 484.92 507.97 481.52 C 490.95 464.50 481.28 454.83 465.92 460.80 Z" fill="#ffffff" fill-rule="nonzero" group-id="7" node-id="139" stroke="none" target-height="201.21255" target-width="224.26599" target-x="428.03204" target-y="454.82657"></path><path d="M 829.97 252.72 C 830.76 251.42 831.50 250.10 832.20 248.75 C 832.90 247.41 833.56 246.04 834.16 244.65 C 834.77 243.26 835.32 241.86 835.83 240.44 C 836.34 239.01 836.80 237.58 837.21 236.13 C 837.62 234.68 837.98 233.21 838.29 231.74 C 838.60 230.27 838.85 228.79 839.06 227.30 C 839.27 225.81 839.42 224.32 839.52 222.82 C 839.63 221.32 839.68 219.82 839.68 218.32 C 839.68 217.19 839.65 216.07 839.59 214.94 C 839.53 213.82 839.45 212.69 839.33 211.57 C 839.21 210.45 839.07 209.33 838.90 208.22 C 838.72 207.11 838.52 206.00 838.29 204.89 C 838.06 203.79 837.80 202.69 837.51 201.60 C 837.22 200.50 836.90 199.42 836.56 198.34 C 836.21 197.26 835.84 196.19 835.44 195.13 C 835.04 194.07 834.62 193.02 834.16 191.98 C 833.71 190.94 833.23 189.91 832.72 188.90 C 832.21 187.88 831.68 186.87 831.12 185.88 C 830.56 184.89 829.98 183.91 829.37 182.94 C 828.76 181.97 828.12 181.02 827.46 180.09 C 826.80 179.15 826.12 178.23 825.41 177.33 C 824.71 176.42 823.98 175.53 823.22 174.66 C 822.47 173.79 821.70 172.94 820.90 172.10 C 820.10 171.27 819.28 170.46 818.45 169.66 C 817.61 168.86 816.75 168.09 815.87 167.33 C 814.99 166.57 814.09 165.84 813.17 165.12 C 812.26 164.41 811.32 163.72 810.37 163.05 C 809.42 162.38 808.45 161.73 807.46 161.10 C 806.47 160.48 805.47 159.87 804.45 159.29 C 803.44 158.72 802.40 158.16 801.36 157.63 C 800.31 157.10 799.25 156.59 798.18 156.11 C 797.11 155.63 796.02 155.17 794.93 154.74 C 793.83 154.31 792.72 153.91 791.61 153.53 C 790.49 153.15 789.36 152.79 788.23 152.47 C 787.09 152.14 785.95 151.84 784.80 151.57 C 783.65 151.29 782.49 151.05 781.32 150.83 C 780.16 150.61 778.99 150.41 777.82 150.25 C 776.64 150.08 775.47 149.95 774.29 149.84 C 773.11 149.72 771.92 149.64 770.74 149.59 C 769.55 149.53 768.37 149.50 767.18 149.50 C 765.99 149.50 764.81 149.53 763.62 149.59 C 762.44 149.64 761.26 149.72 760.07 149.84 C 758.89 149.95 757.72 150.08 756.54 150.25 C 755.37 150.41 754.20 150.61 753.04 150.83 C 751.87 151.05 750.72 151.29 749.56 151.57 C 748.41 151.84 747.27 152.14 746.14 152.47 C 745.00 152.79 743.87 153.15 742.76 153.53 C 741.64 153.91 740.53 154.31 739.44 154.74 C 738.34 155.17 737.26 155.63 736.18 156.11 C 735.11 156.59 734.05 157.10 733.00 157.63 C 731.96 158.16 730.93 158.72 729.91 159.29 C 728.89 159.87 727.89 160.48 726.90 161.10 C 725.92 161.73 724.95 162.38 723.99 163.05 C 723.04 163.72 722.10 164.41 721.19 165.12 C 720.27 165.84 719.37 166.57 718.49 167.33 C 717.61 168.09 716.76 168.86 715.92 169.66 C 715.08 170.46 714.26 171.27 713.46 172.10 C 712.67 172.94 711.89 173.79 711.14 174.66 C 710.39 175.53 709.66 176.42 708.95 177.33 C 708.24 178.23 707.56 179.15 706.90 180.09 C 706.24 181.02 705.61 181.97 705.00 182.94 C 704.39 183.91 703.80 184.89 703.24 185.88 C 702.68 186.87 702.15 187.88 701.64 188.90 C 701.14 189.91 700.65 190.94 700.20 191.98 C 699.75 193.02 699.32 194.07 698.92 195.13 C 698.52 196.19 698.15 197.26 697.80 198.34 C 697.46 199.42 697.14 200.50 696.85 201.60 C 696.57 202.69 696.31 203.79 696.07 204.89 C 695.84 206.00 695.64 207.11 695.47 208.22 C 695.29 209.33 695.15 210.45 695.03 211.57 C 694.91 212.69 694.83 213.82 694.77 214.94 C 694.71 216.07 694.68 217.19 694.68 218.32 C 694.68 218.55 694.68 218.78 694.69 219.01 C 692.25 218.55 689.79 218.32 687.31 218.32 C 686.71 218.32 686.10 218.33 685.50 218.36 C 684.90 218.39 684.30 218.43 683.70 218.48 C 683.10 218.54 682.50 218.61 681.90 218.69 C 681.30 218.77 680.71 218.87 680.12 218.98 C 679.53 219.09 678.94 219.21 678.35 219.35 C 677.77 219.48 677.19 219.63 676.61 219.80 C 676.03 219.96 675.46 220.14 674.89 220.33 C 674.32 220.52 673.76 220.72 673.20 220.94 C 672.64 221.15 672.09 221.38 671.55 221.62 C 671.00 221.86 670.46 222.11 669.93 222.38 C 669.40 222.64 668.87 222.92 668.36 223.21 C 667.84 223.50 667.33 223.80 666.83 224.12 C 666.33 224.43 665.83 224.75 665.35 225.09 C 664.86 225.42 664.39 225.77 663.92 226.13 C 663.46 226.48 663.00 226.85 662.55 227.23 C 662.11 227.61 661.67 228.00 661.24 228.39 C 660.82 228.79 660.40 229.20 659.99 229.62 C 659.59 230.03 659.20 230.46 658.81 230.90 C 658.43 231.33 658.06 231.78 657.70 232.23 C 657.34 232.68 656.99 233.14 656.66 233.61 C 656.32 234.08 656.00 234.55 655.69 235.03 C 655.38 235.52 655.08 236.01 654.80 236.50 C 654.51 237.00 654.24 237.50 653.98 238.01 C 653.73 238.52 653.48 239.04 653.25 239.56 C 653.02 240.08 652.80 240.60 652.60 241.13 C 652.40 241.66 652.21 242.20 652.03 242.74 C 651.86 243.27 651.70 243.82 651.55 244.36 C 651.40 244.91 651.27 245.46 651.15 246.01 C 651.04 246.56 650.93 247.12 650.84 247.67 C 650.76 248.23 650.68 248.79 650.62 249.35 C 650.56 249.91 650.52 250.47 650.49 251.03 C 650.46 251.60 650.44 252.16 650.44 252.72 C 650.44 254.39 650.57 256.04 650.83 257.69 C 651.09 259.34 651.47 260.96 651.98 262.55 L 638.98 262.55 C 627.67 262.55 618.50 271.72 618.50 283.03 C 618.50 285.30 620.33 287.13 622.59 287.13 L 694.68 287.13 L 790.53 287.13 L 860.10 287.13 C 863.75 287.13 866.71 284.17 866.71 280.51 C 866.71 265.17 854.27 252.72 838.92 252.72 L 829.97 252.72 Z" fill="#ffffff" fill-rule="evenodd" group-id="8" node-id="144" stroke="none" target-height="137.62564" target-width="248.21759" target-x="618.49603" target-y="149.50403"></path></g></svg>